# xmcd
#
# Track frame offsets:
#	183
#	18653
#	30050
#	43705
#	53738
#	76165
#	86893
#	103523
#	117340
#	130528
#	141663
#	155688
#
# Disc length: 2261 seconds
#
# Revision: 2
# Processed by: cddbd v1.5.2PL0 Copyright (c) Steve Scherf et al.
# Submitted via: audiograbber 1.83.01
#
DISCID=9608d30c
DTITLE=Bill Haley and The Comets - Rock Around The Clock
DYEAR=1900
DGENRE=Oldies
TTITLE0=Rock This Joint
TTITLE1=Rock-A-Beatin' Boogie
TTITLE2=Skinny Minnie
TTITLE3=Razzle Dazzle
TTITLE4=Rudy's Rock
TTITLE5=See You Later Alligator
TTITLE6=When The Saints Go Marching In
TTITLE7=Framed
TTITLE8=Shake, Rattle and Roll
TTITLE9=Rip It Up
TTITLE10=Crazy Man Crazy
TTITLE11=Rock Around The Clock
EXTD=
EXTT0=
EXTT1=
EXTT2=
EXTT3=
EXTT4=
EXTT5=
EXTT6=
EXTT7=
EXTT8=
EXTT9=
EXTT10=
EXTT11=
PLAYORDER=
